<svg width="104" height="40" viewBox="0 0 104 40" fill="none" xmlns="http://www.w3.org/2000/svg">
<g clip-path="url(#clip0_116_342)">
<path d="M26.085 19.1554V30.3523H20.5201V19.6034C20.5201 18.8381 20.4313 18.155 20.2576 17.5521C20.2576 17.5484 20.2576 17.5465 20.2539 17.5428C20.0283 16.9026 19.6604 16.3221 19.1483 15.7977C18.2923 14.9186 17.2569 14.452 16.0459 14.3978C15.9646 14.3941 15.8851 14.3922 15.8019 14.3922C15.7187 14.3922 15.6392 14.3941 15.5578 14.3978C14.3469 14.452 13.3115 14.9186 12.4555 15.7977C11.9434 16.3221 11.5755 16.9026 11.3499 17.5428C11.3499 17.5447 11.3481 17.5484 11.3462 17.5521C11.1724 18.155 11.0837 18.8381 11.0837 19.6034V30.3523H5.51874V19.1554C5.51874 16.2792 6.5208 13.8304 8.52307 11.8072C9.25521 11.0681 10.0447 10.4652 10.8877 9.99672C12.3538 9.18295 13.9937 8.77606 15.8019 8.77606C17.61 8.77606 19.2499 9.18295 20.7179 9.99672C21.5628 10.4671 22.3504 11.0699 23.0807 11.8072C25.083 13.8304 26.085 16.2792 26.085 19.1554Z" fill="black"/>
<path d="M15.8 40H15.7631C8.29197 39.9907 2.68079 37.0006 0 35.22L2.96181 30.6789C5.13973 32.1254 9.69893 34.5556 15.7705 34.563H15.8019C21.8882 34.563 26.4567 32.131 28.642 30.6789L31.6038 35.2219C28.9156 37.0081 23.2915 40.0019 15.8019 40.0019" fill="#1A01F3"/>
<path d="M19.629 3.86356C19.629 5.99692 17.9151 7.72712 15.8019 7.72712C13.6887 7.72712 11.9748 5.99692 11.9748 3.86356C11.9748 1.7302 13.6887 0 15.8019 0C17.9151 0 19.629 1.7302 19.629 3.86356Z" fill="black"/>
<path d="M41.1012 13.8454C42.1532 13.3545 43.1016 13.11 43.9447 13.11C45.6622 13.11 47.1228 13.7184 48.3301 14.9372C49.5374 16.156 50.1401 17.6305 50.1401 19.3645V26.1098H46.7882V19.3645C46.7882 18.5787 46.5127 17.9049 45.9617 17.3412C45.4108 16.7776 44.7397 16.4957 43.9447 16.4957C43.0369 16.4957 42.3362 16.7701 41.8426 17.317C41.3489 17.8638 41.1012 18.6366 41.1012 19.6351V26.1098H37.7493V13.8472H41.1012V13.8454Z" fill="black"/>
<path d="M63.5496 15.122C64.8771 16.4621 65.5426 18.0822 65.5426 19.9785C65.5426 21.8749 64.8789 23.4931 63.5496 24.8351C62.2221 26.1752 60.6174 26.8471 58.739 26.8471C56.8605 26.8471 55.2576 26.177 53.9283 24.8351C52.6009 23.4949 51.9353 21.8749 51.9353 19.9785C51.9353 18.0822 52.599 16.4621 53.9283 15.122C55.2576 13.7819 56.8605 13.11 58.739 13.11C60.6174 13.11 62.2221 13.78 63.5496 15.122ZM56.2856 17.4999C55.6052 18.1867 55.265 19.0117 55.265 19.9767C55.265 20.9416 55.6052 21.7666 56.2856 22.4535C56.9659 23.1403 57.7831 23.4837 58.739 23.4837C59.6948 23.4837 60.512 23.1403 61.1923 22.4535C61.8727 21.7666 62.2129 20.9416 62.2129 19.9767C62.2129 19.0117 61.8727 18.1867 61.1923 17.4999C60.512 16.813 59.6948 16.4696 58.739 16.4696C57.7831 16.4696 56.9659 16.813 56.2856 17.4999Z" fill="black"/>
<path d="M74.2395 13.8454V16.8616H71.6401V26.108H68.2623V16.8616H66.7555V13.8454H68.2623V6.48779H71.6401V13.8454H74.2395Z" fill="black"/>
<path d="M76.4488 10.0191V6.48779H79.8266V10.0191H76.4488ZM76.4488 26.1098V13.8472H79.8266V26.1098H76.4488Z" fill="black"/>
<path d="M83.6167 11.516C83.6167 9.92954 84.1714 8.57262 85.2807 7.44529C86.39 6.31795 87.7378 5.75241 89.3259 5.75241C90.3779 5.75241 91.3337 6.01371 92.1934 6.53819C92.4855 6.71737 92.6704 6.84055 92.7518 6.90588L90.7347 9.62904C90.7181 9.62904 90.6977 9.61224 90.6737 9.58051C90.6497 9.54691 90.6293 9.53198 90.6127 9.53198C90.1911 9.27068 89.7622 9.14003 89.3259 9.14003C88.6788 9.14003 88.1242 9.37333 87.662 9.83995C87.1998 10.3066 86.9686 10.8665 86.9686 11.5198V13.8491H89.642V17.2591H86.9686V26.1136H83.6167V17.2591H82.0859V13.8491H83.6167V11.5198V11.516Z" fill="black"/>
<path d="M92.7998 34.2028L95.8375 26.0837L91.2949 13.8454H94.8909L97.6364 21.2533L100.406 13.8454H104.002L96.3976 34.2028H92.8017H92.7998Z" fill="black"/>
<path d="M37.9785 31.9817V33.4599H37.7067V31.0951H37.9711V31.4666H37.9952C38.0506 31.3452 38.1357 31.2482 38.2522 31.1754C38.3686 31.1026 38.5128 31.0653 38.6848 31.0653C38.8419 31.0653 38.9806 31.0989 39.1008 31.1642C39.2209 31.2295 39.3134 31.3284 39.3799 31.4554C39.4465 31.5823 39.4798 31.7409 39.4798 31.9276V33.4599H39.208V31.9444C39.208 31.7503 39.1544 31.5972 39.0471 31.4834C38.9399 31.3695 38.7957 31.3135 38.6164 31.3135C38.4925 31.3135 38.3834 31.3396 38.2891 31.3938C38.193 31.4479 38.1172 31.5244 38.0636 31.6233C38.0081 31.7241 37.9804 31.8417 37.9804 31.9798" fill="black"/>
<path d="M41.752 33.5103C41.5486 33.5103 41.3711 33.4581 41.2158 33.3554C41.0605 33.2528 40.9403 33.109 40.8516 32.9261C40.7647 32.7432 40.7203 32.5304 40.7203 32.2915C40.7203 32.0526 40.7647 31.8361 40.8516 31.6513C40.9385 31.4666 41.0605 31.3228 41.2158 31.2202C41.3711 31.1175 41.5486 31.0653 41.752 31.0653C41.9553 31.0653 42.1328 31.1175 42.2863 31.2202C42.4416 31.3228 42.5618 31.4684 42.6505 31.6513C42.7392 31.8343 42.7818 32.047 42.7818 32.2897C42.7818 32.5323 42.7374 32.7414 42.6505 32.9243C42.5636 33.1072 42.4416 33.2509 42.2863 33.3535C42.131 33.4581 41.9516 33.5085 41.7501 33.5085M41.752 33.2584C41.9147 33.2584 42.0515 33.2136 42.1661 33.1258C42.2789 33.0381 42.3639 32.9205 42.4231 32.7731C42.4823 32.6256 42.51 32.4651 42.51 32.2878C42.51 32.1105 42.4804 31.9481 42.4231 31.8007C42.3639 31.6532 42.2789 31.5338 42.1661 31.4442C42.0533 31.3546 41.9147 31.3098 41.752 31.3098C41.5893 31.3098 41.4525 31.3546 41.3397 31.4442C41.2269 31.5338 41.14 31.6513 41.0827 31.8007C41.0235 31.9481 40.9958 32.1105 40.9958 32.2878C40.9958 32.4651 41.0254 32.6256 41.0827 32.7731C41.1419 32.9205 41.2269 33.0381 41.3397 33.1258C41.4525 33.2136 41.5911 33.2584 41.7538 33.2584" fill="black"/>
<path d="M44.9449 31.334H43.8263V31.0951H44.9449V31.334ZM44.1776 30.5296H44.4512V32.844C44.4512 32.9429 44.4679 33.0195 44.5012 33.0754C44.5344 33.1314 44.5788 33.1706 44.6324 33.1949C44.6861 33.2173 44.7434 33.2304 44.8044 33.2304C44.8395 33.2304 44.8709 33.2285 44.895 33.2229C44.9209 33.2192 44.943 33.2136 44.9615 33.208L45.0188 33.4562C44.993 33.4655 44.9597 33.4767 44.9209 33.4842C44.882 33.4917 44.834 33.4973 44.7766 33.4973C44.6768 33.4973 44.5807 33.4749 44.4901 33.4319C44.3976 33.3871 44.3218 33.3218 44.2627 33.2341C44.2035 33.1464 44.1739 33.0381 44.1739 32.9093V30.5296H44.1776Z" fill="black"/>
<path d="M46.3481 30.6901C46.2927 30.6901 46.2446 30.6715 46.2039 30.6323C46.1633 30.5931 46.1448 30.5464 46.1448 30.4923C46.1448 30.4382 46.1651 30.3915 46.2058 30.3523C46.2465 30.3131 46.2927 30.2944 46.3481 30.2944C46.4036 30.2944 46.4517 30.3131 46.4905 30.3523C46.5312 30.3915 46.5497 30.4363 46.5497 30.4923C46.5497 30.5483 46.5293 30.5931 46.4887 30.6323C46.448 30.6715 46.4018 30.6901 46.3463 30.6901M46.2095 31.0951H46.4831V33.4599H46.2095V31.0951Z" fill="black"/>
<path d="M48.8089 31.3341H47.6571V31.0952H48.8089V31.3341ZM48.0176 33.46V30.748C48.0176 30.6211 48.0472 30.5128 48.1045 30.427C48.1637 30.3392 48.2395 30.2739 48.3338 30.2291C48.4281 30.1843 48.5279 30.1619 48.6333 30.1619C48.7035 30.1619 48.7627 30.1675 48.8108 30.1787C48.8589 30.1899 48.8958 30.203 48.9236 30.2142L48.8441 30.455C48.8237 30.4494 48.7997 30.4419 48.7701 30.4344C48.7405 30.427 48.7035 30.4214 48.6592 30.4214C48.5409 30.4214 48.4503 30.455 48.3855 30.5222C48.3208 30.5893 48.2894 30.6845 48.2894 30.8077V33.4618H48.0158L48.0176 33.46Z" fill="black"/>
<path d="M50.1382 30.6901C50.0828 30.6901 50.0347 30.6715 49.994 30.6323C49.9552 30.5931 49.9349 30.5464 49.9349 30.4923C49.9349 30.4382 49.9552 30.3915 49.9959 30.3523C50.0365 30.3131 50.0828 30.2944 50.1382 30.2944C50.1937 30.2944 50.2418 30.3131 50.2824 30.3523C50.3213 30.3915 50.3416 30.4363 50.3416 30.4923C50.3416 30.5483 50.3213 30.5931 50.2806 30.6323C50.2399 30.6715 50.1937 30.6901 50.1382 30.6901ZM49.9996 31.0951H50.2732V33.4599H49.9996V31.0951Z" fill="black"/>
<path d="M52.5528 33.5103C52.3439 33.5103 52.1608 33.4581 52.0055 33.3517C51.8502 33.2453 51.7301 33.1016 51.645 32.9168C51.56 32.7339 51.5175 32.523 51.5175 32.2897C51.5175 32.0564 51.56 31.8417 51.6469 31.6569C51.7338 31.4722 51.8539 31.3266 52.0092 31.2221C52.1645 31.1175 52.3439 31.0634 52.5473 31.0634C52.7044 31.0634 52.8449 31.0933 52.9725 31.1549C53.1 31.2165 53.2054 31.3023 53.2868 31.4124C53.37 31.5226 53.4217 31.6513 53.4421 31.7988H53.1685C53.1407 31.6663 53.0723 31.5506 52.9632 31.4554C52.8542 31.3602 52.7173 31.3135 52.5509 31.3135C52.4012 31.3135 52.2699 31.3546 52.1553 31.4367C52.0407 31.5188 51.9501 31.6308 51.8854 31.7764C51.8207 31.922 51.7892 32.09 51.7892 32.2803C51.7892 32.4707 51.8207 32.6424 51.8835 32.7899C51.9464 32.9373 52.0351 33.0531 52.1498 33.1352C52.2644 33.2192 52.3975 33.2602 52.5509 33.2602C52.6545 33.2602 52.7488 33.2397 52.8357 33.2005C52.9207 33.1613 52.9928 33.1053 53.052 33.0325C53.1111 32.9597 53.15 32.872 53.1703 32.7731H53.4439C53.4236 32.9149 53.3737 33.0437 53.2942 33.1538C53.2147 33.2658 53.1111 33.3536 52.9836 33.417C52.8579 33.4805 52.7118 33.5122 52.5491 33.5122" fill="black"/>
<path d="M55.326 33.5141C55.1855 33.5141 55.0561 33.4861 54.9396 33.4301C54.8231 33.3741 54.7289 33.2938 54.6604 33.1874C54.592 33.0811 54.5569 32.9523 54.5569 32.7992C54.5569 32.6816 54.5791 32.5846 54.6216 32.5043C54.666 32.4241 54.727 32.3587 54.8084 32.3065C54.8879 32.2561 54.984 32.215 55.0931 32.1852C55.2022 32.1553 55.3242 32.1329 55.4554 32.1161C55.5867 32.0993 55.6976 32.0862 55.7882 32.0732C55.8788 32.0601 55.9491 32.0414 55.9972 32.0153C56.0452 31.9892 56.0693 31.9462 56.0693 31.8865V31.8305C56.0693 31.67 56.0212 31.5431 55.9269 31.4498C55.8326 31.3565 55.6958 31.3098 55.5165 31.3098C55.3482 31.3098 55.2095 31.3471 55.1042 31.4218C54.9988 31.4964 54.923 31.586 54.8805 31.6868L54.6235 31.5935C54.6771 31.4647 54.7492 31.3602 54.8435 31.2837C54.9378 31.2071 55.0413 31.1511 55.1578 31.1157C55.2743 31.0821 55.3907 31.0634 55.5109 31.0634C55.5997 31.0634 55.6939 31.0746 55.7901 31.0989C55.8881 31.1231 55.9768 31.1642 56.06 31.2221C56.1432 31.2799 56.2116 31.3602 56.2634 31.4628C56.3151 31.5655 56.341 31.6961 56.341 31.8548V33.4599H56.0693V33.0848H56.0526C56.0193 33.1538 55.9713 33.2229 55.9084 33.2882C55.8437 33.3536 55.7642 33.4077 55.6681 33.4506C55.5719 33.4935 55.4573 33.5141 55.3279 33.5141M55.363 33.264C55.5072 33.264 55.6329 33.2322 55.7383 33.1669C55.8437 33.1016 55.925 33.0157 55.9824 32.9093C56.0397 32.803 56.0693 32.6835 56.0693 32.5547V32.2132C56.0489 32.2318 56.0156 32.2505 55.9676 32.2654C55.9195 32.2803 55.8659 32.2953 55.8049 32.3065C55.7439 32.3177 55.6829 32.3289 55.6218 32.3363C55.5608 32.3438 55.5054 32.3513 55.4573 32.3587C55.3242 32.3755 55.2114 32.4017 55.119 32.4353C55.0247 32.4707 54.9544 32.5174 54.9045 32.579C54.8546 32.6406 54.8305 32.719 54.8305 32.8142C54.8305 32.9579 54.8805 33.0699 54.9821 33.1482C55.0838 33.2266 55.2114 33.2658 55.3649 33.2658" fill="black"/>
<path d="M58.628 31.334H57.5095V31.0951H58.628V31.334ZM57.8589 30.5296H58.1325V32.844C58.1325 32.9429 58.1492 33.0195 58.1825 33.0754C58.2157 33.1314 58.2601 33.1706 58.3137 33.1949C58.3673 33.2173 58.4247 33.2304 58.4857 33.2304C58.5208 33.2304 58.5522 33.2285 58.5763 33.2229C58.6021 33.2192 58.6243 33.2136 58.6428 33.208L58.7001 33.4562C58.6743 33.4655 58.641 33.4767 58.6021 33.4842C58.5633 33.4917 58.5153 33.4973 58.4579 33.4973C58.3581 33.4973 58.262 33.4749 58.1714 33.4319C58.0789 33.3871 58.0031 33.3218 57.944 33.2341C57.8848 33.1464 57.8552 33.0381 57.8552 32.9093V30.5296H57.8589Z" fill="black"/>
<path d="M60.0313 30.6901C59.9758 30.6901 59.9277 30.6715 59.8871 30.6323C59.8482 30.5931 59.8279 30.5464 59.8279 30.4923C59.8279 30.4382 59.8482 30.3915 59.8889 30.3523C59.9296 30.3131 59.9758 30.2944 60.0313 30.2944C60.0867 30.2944 60.1348 30.3131 60.1755 30.3523C60.2143 30.3915 60.2346 30.4363 60.2346 30.4923C60.2346 30.5483 60.2143 30.5931 60.1736 30.6323C60.133 30.6715 60.0867 30.6901 60.0313 30.6901ZM59.8908 31.0951H60.1644V33.4599H59.8908V31.0951Z" fill="black"/>
<path d="M62.4385 33.5103C62.2351 33.5103 62.0576 33.4581 61.9023 33.3554C61.747 33.2528 61.6268 33.109 61.5381 32.9261C61.4512 32.7432 61.4068 32.5304 61.4068 32.2915C61.4068 32.0526 61.4512 31.8361 61.5381 31.6513C61.625 31.4666 61.747 31.3228 61.9023 31.2202C62.0576 31.1175 62.2351 31.0653 62.4385 31.0653C62.6418 31.0653 62.8193 31.1175 62.9728 31.2202C63.1281 31.3228 63.2482 31.4684 63.337 31.6513C63.4257 31.8343 63.4683 32.047 63.4683 32.2897C63.4683 32.5323 63.4239 32.7414 63.337 32.9243C63.2501 33.1072 63.1281 33.2509 62.9728 33.3535C62.8175 33.4581 62.6381 33.5085 62.4366 33.5085M62.4385 33.2584C62.6012 33.2584 62.738 33.2136 62.8526 33.1258C62.9654 33.0381 63.0504 32.9205 63.1096 32.7731C63.1687 32.6256 63.1965 32.4651 63.1965 32.2878C63.1965 32.1105 63.1669 31.9481 63.1096 31.8007C63.0504 31.6532 62.9654 31.5338 62.8526 31.4442C62.7398 31.3546 62.6012 31.3098 62.4385 31.3098C62.2758 31.3098 62.1389 31.3546 62.0262 31.4442C61.9134 31.5338 61.8265 31.6513 61.7692 31.8007C61.71 31.9481 61.6823 32.1105 61.6823 32.2878C61.6823 32.4651 61.7119 32.6256 61.7692 32.7731C61.8283 32.9205 61.9134 33.0381 62.0262 33.1258C62.1389 33.2136 62.2776 33.2584 62.4403 33.2584" fill="black"/>
<path d="M64.9824 31.9817V33.4599H64.7107V31.0951H64.975V31.4666H64.9991C65.0545 31.3452 65.1396 31.2482 65.2561 31.1754C65.3725 31.1026 65.5167 31.0653 65.6887 31.0653C65.8458 31.0653 65.9845 31.0989 66.1047 31.1642C66.2248 31.2295 66.3173 31.3284 66.3838 31.4554C66.4504 31.5823 66.4837 31.7409 66.4837 31.9276V33.4599H66.2119V31.9444C66.2119 31.7503 66.1583 31.5972 66.0511 31.4834C65.9438 31.3695 65.7996 31.3135 65.6203 31.3135C65.4964 31.3135 65.3873 31.3396 65.293 31.3938C65.1969 31.4479 65.1211 31.5244 65.0675 31.6233C65.012 31.7241 64.9843 31.8417 64.9843 31.9798" fill="black"/>
<path d="M71.2703 31.614L71.0207 31.6849C70.9967 31.614 70.9615 31.5506 70.9172 31.4927C70.8728 31.4348 70.8136 31.39 70.7434 31.3564C70.6713 31.3228 70.5825 31.306 70.4771 31.306C70.3181 31.306 70.1887 31.3434 70.087 31.4199C69.9854 31.4964 69.9336 31.5935 69.9336 31.7148C69.9336 31.8156 69.9687 31.8996 70.039 31.9612C70.1092 32.0246 70.2165 32.075 70.3607 32.1105L70.7156 32.1982C70.9116 32.2467 71.0595 32.3233 71.1575 32.4278C71.2555 32.5323 71.3054 32.663 71.3054 32.8216C71.3054 32.9541 71.2684 33.0736 71.1963 33.1781C71.1224 33.2808 71.0207 33.3629 70.8913 33.4226C70.76 33.4823 70.6103 33.5103 70.4383 33.5103C70.2091 33.5103 70.0205 33.4581 69.8726 33.3535C69.7247 33.249 69.6285 33.0978 69.5879 32.9019L69.8485 32.8365C69.8818 32.9765 69.9484 33.0829 70.0464 33.1557C70.1444 33.2266 70.2738 33.264 70.4346 33.264C70.614 33.264 70.7582 33.2229 70.8654 33.1408C70.9726 33.0587 71.0281 32.9579 71.0281 32.8328C71.0281 32.7376 70.9967 32.6574 70.9338 32.592C70.8709 32.5267 70.7748 32.4782 70.6472 32.4483L70.2645 32.3569C70.0612 32.3083 69.9114 32.2299 69.8134 32.1236C69.7154 32.0172 69.6674 31.8846 69.6674 31.726C69.6674 31.5953 69.7025 31.4815 69.7727 31.3826C69.843 31.2837 69.9391 31.2053 70.063 31.1493C70.1869 31.0933 70.3255 31.0653 70.4845 31.0653C70.699 31.0653 70.8709 31.1138 71.0004 31.2127C71.1279 31.3116 71.2222 31.446 71.2795 31.6159" fill="black"/>
<path d="M72.7308 34.3484C72.6772 34.3484 72.6273 34.3428 72.5792 34.3334C72.533 34.3241 72.496 34.311 72.4683 34.2998L72.5423 34.0591C72.6347 34.0871 72.7179 34.0983 72.79 34.0908C72.8621 34.0833 72.9268 34.0497 72.9823 33.9919C73.0377 33.934 73.0877 33.8463 73.132 33.7268L73.2171 33.4861L72.3555 31.0989H72.6495L73.3447 33.1016H73.3668L74.062 31.0989H74.356L73.365 33.8388C73.3243 33.9527 73.2725 34.0479 73.2115 34.1244C73.1505 34.2009 73.0803 34.2569 73.0008 34.2943C72.9213 34.3316 72.8307 34.3502 72.7327 34.3502" fill="black"/>
<path d="M77.1033 31.614L76.8537 31.6849C76.8297 31.614 76.7946 31.5506 76.7502 31.4927C76.7058 31.4348 76.6467 31.39 76.5764 31.3564C76.5043 31.3228 76.4156 31.306 76.3102 31.306C76.1512 31.306 76.0218 31.3434 75.9201 31.4199C75.8184 31.4964 75.7666 31.5935 75.7666 31.7148C75.7666 31.8156 75.8018 31.8996 75.872 31.9612C75.9423 32.0246 76.0495 32.075 76.1937 32.1105L76.5487 32.1982C76.7447 32.2467 76.8926 32.3233 76.9905 32.4278C77.0885 32.5323 77.1385 32.663 77.1385 32.8216C77.1385 32.9541 77.1015 33.0736 77.0294 33.1781C76.9554 33.2808 76.8537 33.3629 76.7243 33.4226C76.5931 33.4823 76.4433 33.5103 76.2714 33.5103C76.0421 33.5103 75.8535 33.4581 75.7056 33.3535C75.5577 33.249 75.4616 33.0978 75.4209 32.9019L75.6816 32.8365C75.7149 32.9765 75.7814 33.0829 75.8794 33.1557C75.9774 33.2266 76.1068 33.264 76.2677 33.264C76.447 33.264 76.5912 33.2229 76.6984 33.1408C76.8057 33.0587 76.8611 32.9579 76.8611 32.8328C76.8611 32.7376 76.8297 32.6574 76.7668 32.592C76.704 32.5267 76.6078 32.4782 76.4803 32.4483L76.0976 32.3569C75.8942 32.3083 75.7444 32.2299 75.6465 32.1236C75.5485 32.0172 75.5004 31.8846 75.5004 31.726C75.5004 31.5953 75.5355 31.4815 75.6058 31.3826C75.676 31.2837 75.7722 31.2053 75.896 31.1493C76.0199 31.0933 76.1586 31.0653 76.3176 31.0653C76.532 31.0653 76.704 31.1138 76.8334 31.2127C76.961 31.3116 77.0553 31.446 77.1126 31.6159" fill="black"/>
<path d="M79.2979 31.334H78.1793V31.0951H79.2979V31.334ZM78.5306 30.5296H78.8042V32.844C78.8042 32.9429 78.8209 33.0195 78.8542 33.0754C78.8874 33.1314 78.9318 33.1706 78.9854 33.1949C79.039 33.2173 79.0964 33.2304 79.1574 33.2304C79.1925 33.2304 79.2239 33.2285 79.248 33.2229C79.2738 33.2192 79.296 33.2136 79.3145 33.208L79.3718 33.4562C79.3459 33.4655 79.3127 33.4767 79.2738 33.4842C79.235 33.4917 79.1869 33.4973 79.1296 33.4973C79.0298 33.4973 78.9337 33.4749 78.8431 33.4319C78.7506 33.3871 78.6748 33.3218 78.6157 33.2341C78.5565 33.1464 78.5269 33.0381 78.5269 32.9093V30.5296H78.5306Z" fill="black"/>
<path d="M81.4813 33.5103C81.2632 33.5103 81.0727 33.4581 80.9137 33.3554C80.7548 33.2528 80.6309 33.109 80.544 32.9261C80.4571 32.7432 80.4127 32.5323 80.4127 32.2934C80.4127 32.0545 80.4571 31.8436 80.544 31.6588C80.6309 31.474 80.7511 31.3284 80.9064 31.2239C81.0598 31.1194 81.2391 31.0653 81.4407 31.0653C81.5682 31.0653 81.6903 31.0877 81.8086 31.1362C81.9269 31.1829 82.0323 31.2538 82.1266 31.3508C82.2209 31.446 82.2948 31.5674 82.3503 31.7129C82.4058 31.8585 82.4316 32.0302 82.4316 32.2281V32.3643H80.6013V32.1236H82.1543C82.1543 31.9724 82.1247 31.8343 82.0637 31.7129C82.0027 31.5916 81.9195 31.4946 81.8123 31.4236C81.705 31.3527 81.5812 31.3172 81.4407 31.3172C81.2928 31.3172 81.1615 31.3583 81.0487 31.4367C80.9359 31.517 80.8472 31.6215 80.7843 31.754C80.7215 31.8847 80.6882 32.0284 80.6882 32.1852V32.3307C80.6882 32.5192 80.7196 32.6835 80.7843 32.8235C80.849 32.9635 80.9396 33.0717 81.0598 33.1482C81.1781 33.2248 81.3205 33.264 81.4832 33.264C81.5941 33.264 81.6921 33.2472 81.7753 33.2117C81.8585 33.1762 81.9306 33.1296 81.9879 33.0717C82.0452 33.012 82.0896 32.9485 82.1192 32.8776L82.3762 32.9616C82.341 33.0605 82.2819 33.1538 82.2024 33.2378C82.1229 33.3218 82.0212 33.389 81.901 33.4413C81.7808 33.4917 81.6422 33.5178 81.485 33.5178" fill="black"/>
<path d="M83.6722 33.4599V31.0951H83.9366V31.4591H83.9606C84.0068 31.3378 84.0863 31.2407 84.1954 31.1698C84.3045 31.0989 84.4358 31.0634 84.5892 31.0634C84.7519 31.0634 84.8832 31.1026 84.9886 31.1791C85.0921 31.2557 85.1716 31.3602 85.2234 31.4946H85.2437C85.2973 31.3639 85.3824 31.2594 85.5025 31.181C85.6227 31.1026 85.7669 31.0653 85.937 31.0653C86.1552 31.0653 86.3271 31.1343 86.4528 31.2725C86.5785 31.4106 86.6414 31.6122 86.6414 31.8772V33.4618H86.3696V31.8772C86.3696 31.6905 86.3216 31.5506 86.2273 31.4572C86.133 31.3639 86.0073 31.3173 85.8538 31.3173C85.6745 31.3173 85.5377 31.3732 85.4397 31.4834C85.3435 31.5935 85.2955 31.7353 85.2955 31.9052V33.4618H85.0181V31.8529C85.0181 31.6924 84.9738 31.5636 84.885 31.4647C84.7963 31.3658 84.6724 31.3173 84.5116 31.3173C84.4043 31.3173 84.3063 31.3434 84.2213 31.3975C84.1363 31.4516 84.0678 31.5244 84.0179 31.6196C83.968 31.7148 83.944 31.8231 83.944 31.9463V33.4618H83.6722V33.4599Z" fill="black"/>
</g>
<defs>
<clipPath id="clip0_116_342">
<rect width="104" height="40" fill="white"/>
</clipPath>
</defs>
</svg>
