<svg width="180" height="69" viewBox="0 0 180 69" fill="none" xmlns="http://www.w3.org/2000/svg">
<g clip-path="url(#clip0_279_230)">
<path d="M45.1473 33.0431V52.3577H35.5156V33.8158C35.5156 32.4957 35.362 31.3173 35.0613 30.2774C35.0613 30.271 35.0613 30.2677 35.0549 30.2613C34.6645 29.157 34.0277 28.1557 33.1413 27.2509C31.6598 25.7345 29.8678 24.9296 27.7719 24.8362C27.6311 24.8298 27.4935 24.8266 27.3495 24.8266C27.2055 24.8266 27.0679 24.8298 26.9271 24.8362C24.8312 24.9296 23.0393 25.7345 21.5577 27.2509C20.6714 28.1557 20.0346 29.157 19.6442 30.2613C19.6442 30.2645 19.641 30.271 19.6378 30.2774C19.337 31.3173 19.1834 32.4957 19.1834 33.8158V52.3577H9.55176V33.0431C9.55176 28.0816 11.2861 23.8574 14.7516 20.3674C16.0187 19.0924 17.3851 18.0524 18.8442 17.2443C21.3817 15.8406 24.22 15.1387 27.3495 15.1387C30.479 15.1387 33.3173 15.8406 35.858 17.2443C37.3204 18.0557 38.6835 19.0956 39.9475 20.3674C43.413 23.8574 45.1473 28.0816 45.1473 33.0431Z" fill="white"/>
<path d="M27.3462 69.0002H27.2822C14.3515 68.9841 4.63984 63.8263 0 60.7548L5.12622 52.9214C8.89568 55.4166 16.7866 59.6086 27.295 59.6214H27.3494C37.8835 59.6214 45.7904 55.4263 49.5726 52.9214L54.6989 60.758C50.0462 63.8392 40.3122 69.0035 27.3494 69.0035" fill="#1A01F3"/>
<path d="M33.9731 6.66464C33.9731 10.3447 31.0068 13.3293 27.3494 13.3293C23.6919 13.3293 20.7256 10.3447 20.7256 6.66464C20.7256 2.9846 23.6919 0 27.3494 0C31.0068 0 33.9731 2.9846 33.9731 6.66464Z" fill="white"/>
<path d="M71.1368 23.8833C72.9576 23.0365 74.5991 22.6147 76.0583 22.6147C79.031 22.6147 81.5589 23.6643 83.6484 25.7668C85.7379 27.8692 86.7811 30.4127 86.7811 33.4037V45.0395H80.9797V33.4037C80.9797 32.0483 80.5029 30.886 79.5493 29.9137C78.5958 28.9413 77.4342 28.4552 76.0583 28.4552C74.4871 28.4552 73.2744 28.9285 72.42 29.8718C71.5656 30.8152 71.1368 32.1481 71.1368 33.8706V45.0395H65.3354V23.8865H71.1368V23.8833Z" fill="white"/>
<path d="M109.99 26.0855C112.287 28.3972 113.439 31.1919 113.439 34.463C113.439 37.7342 112.291 40.5256 109.99 42.8405C107.692 45.1522 104.915 46.3113 101.664 46.3113C98.4127 46.3113 95.6384 45.1554 93.3377 42.8405C91.0401 40.5288 89.8882 37.7342 89.8882 34.463C89.8882 31.1919 91.0369 28.3972 93.3377 26.0855C95.6384 23.7738 98.4127 22.6147 101.664 22.6147C104.915 22.6147 107.692 23.7706 109.99 26.0855ZM97.4175 30.1873C96.24 31.3722 95.6512 32.7952 95.6512 34.4598C95.6512 36.1243 96.24 37.5474 97.4175 38.7322C98.5951 39.9171 100.009 40.5095 101.664 40.5095C103.318 40.5095 104.732 39.9171 105.91 38.7322C107.088 37.5474 107.676 36.1243 107.676 34.4598C107.676 32.7952 107.088 31.3722 105.91 30.1873C104.732 29.0025 103.318 28.4101 101.664 28.4101C100.009 28.4101 98.5951 29.0025 97.4175 30.1873Z" fill="white"/>
<path d="M128.491 23.8832V29.0861H123.992V45.0362H118.146V29.0861H115.538V23.8832H118.146V11.1914H123.992V23.8832H128.491Z" fill="white"/>
<path d="M132.315 17.283V11.1914H138.161V17.283H132.315ZM132.315 45.0394V23.8864H138.161V45.0394H132.315Z" fill="white"/>
<path d="M144.721 19.8651C144.721 17.1284 145.681 14.7877 147.601 12.8431C149.521 10.8984 151.853 9.92285 154.602 9.92285C156.423 9.92285 158.077 10.3736 159.565 11.2783C160.071 11.5874 160.391 11.7999 160.531 11.9126L157.04 16.61C157.012 16.61 156.976 16.5811 156.935 16.5263C156.893 16.4684 156.858 16.4426 156.829 16.4426C156.1 15.9919 155.357 15.7665 154.602 15.7665C153.482 15.7665 152.522 16.1689 151.722 16.9739C150.922 17.7788 150.522 18.7447 150.522 19.8715V23.8896H155.149V29.7719H150.522V45.0459H144.721V29.7719H142.071V23.8896H144.721V19.8715V19.8651Z" fill="white"/>
<path d="M160.615 58.9999L165.872 44.9944L158.01 23.8833H164.234L168.986 36.662L173.779 23.8833H180.003L166.842 58.9999H160.618H160.615Z" fill="white"/>
<path d="M65.7321 55.1682V57.7182H65.2617V53.6389H65.7193V54.2796H65.7609C65.8569 54.0703 66.0041 53.9029 66.2057 53.7774C66.4073 53.6518 66.6569 53.5874 66.9545 53.5874C67.2265 53.5874 67.4664 53.6454 67.6744 53.758C67.8824 53.8707 68.0424 54.0414 68.1576 54.2603C68.2728 54.4792 68.3304 54.7529 68.3304 55.0749V57.7182H67.86V55.1038C67.86 54.769 67.7672 54.505 67.5816 54.3086C67.396 54.1122 67.1465 54.0156 66.8361 54.0156C66.6217 54.0156 66.4329 54.0607 66.2697 54.1541C66.1033 54.2474 65.9721 54.3794 65.8793 54.5501C65.7833 54.7239 65.7353 54.9268 65.7353 55.165" fill="white"/>
<path d="M72.2631 57.8051C71.9111 57.8051 71.6039 57.715 71.3351 57.5379C71.0663 57.3608 70.8583 57.1129 70.7047 56.7974C70.5543 56.4819 70.4775 56.1148 70.4775 55.7027C70.4775 55.2906 70.5543 54.9171 70.7047 54.5984C70.8551 54.2796 71.0663 54.0317 71.3351 53.8546C71.6039 53.6776 71.9111 53.5874 72.2631 53.5874C72.6151 53.5874 72.9223 53.6776 73.1878 53.8546C73.4566 54.0317 73.6646 54.2828 73.8182 54.5984C73.9718 54.9139 74.0454 55.2809 74.0454 55.6995C74.0454 56.118 73.9686 56.4786 73.8182 56.7942C73.6678 57.1097 73.4566 57.3576 73.1878 57.5347C72.9191 57.715 72.6087 57.8019 72.2599 57.8019M72.2631 57.3705C72.5447 57.3705 72.7815 57.2932 72.9799 57.1419C73.175 56.9906 73.3222 56.7877 73.4246 56.5334C73.527 56.279 73.575 56.0021 73.575 55.6963C73.575 55.3904 73.5238 55.1103 73.4246 54.8559C73.3222 54.6016 73.175 54.3955 72.9799 54.241C72.7847 54.0864 72.5447 54.0092 72.2631 54.0092C71.9815 54.0092 71.7447 54.0864 71.5495 54.241C71.3543 54.3955 71.2039 54.5984 71.1047 54.8559C71.0023 55.1103 70.9543 55.3904 70.9543 55.6963C70.9543 56.0021 71.0055 56.279 71.1047 56.5334C71.2071 56.7877 71.3543 56.9906 71.5495 57.1419C71.7447 57.2932 71.9847 57.3705 72.2663 57.3705" fill="white"/>
<path d="M77.7894 54.0512H75.8535V53.6391H77.7894V54.0512ZM76.4615 52.6636H76.9351V56.6559C76.9351 56.8266 76.9639 56.9586 77.0215 57.0552C77.0791 57.1517 77.1559 57.2194 77.2487 57.2612C77.3415 57.2998 77.4407 57.3224 77.5463 57.3224C77.6071 57.3224 77.6615 57.3192 77.703 57.3095C77.7478 57.3031 77.7862 57.2934 77.8182 57.2837L77.9174 57.712C77.8726 57.7281 77.815 57.7474 77.7478 57.7603C77.6807 57.7731 77.5975 57.7828 77.4983 57.7828C77.3255 57.7828 77.1591 57.7442 77.0023 57.6701C76.8423 57.5928 76.7111 57.4801 76.6087 57.3288C76.5063 57.1775 76.4551 56.9908 76.4551 56.7686V52.6636H76.4615Z" fill="white"/>
<path d="M80.2182 52.9404C80.1222 52.9404 80.039 52.9082 79.9686 52.8406C79.8982 52.773 79.8662 52.6925 79.8662 52.5991C79.8662 52.5057 79.9014 52.4252 79.9718 52.3576C80.0422 52.29 80.1222 52.2578 80.2182 52.2578C80.3142 52.2578 80.3974 52.29 80.4646 52.3576C80.535 52.4252 80.567 52.5025 80.567 52.5991C80.567 52.6957 80.5318 52.773 80.4614 52.8406C80.391 52.9082 80.311 52.9404 80.215 52.9404M79.9782 53.639H80.4518V57.7183H79.9782V53.639Z" fill="white"/>
<path d="M84.4769 54.0512H82.4834V53.6391H84.4769V54.0512ZM83.1074 57.7184V53.0403C83.1074 52.8213 83.1586 52.6346 83.2578 52.4865C83.3602 52.3352 83.4914 52.2225 83.6546 52.1452C83.8178 52.0679 83.9905 52.0293 84.1729 52.0293C84.2945 52.0293 84.3969 52.039 84.4801 52.0583C84.5633 52.0776 84.6273 52.1001 84.6753 52.1194L84.5377 52.5348C84.5025 52.5251 84.4609 52.5122 84.4097 52.4994C84.3585 52.4865 84.2945 52.4768 84.2177 52.4768C84.0129 52.4768 83.8562 52.5348 83.7442 52.6507C83.6322 52.7666 83.5778 52.9308 83.5778 53.1433V57.7216H83.1042L83.1074 57.7184Z" fill="white"/>
<path d="M86.7778 52.9404C86.6818 52.9404 86.5986 52.9082 86.5282 52.8406C86.461 52.773 86.4258 52.6925 86.4258 52.5991C86.4258 52.5057 86.461 52.4252 86.5314 52.3576C86.6018 52.29 86.6818 52.2578 86.7778 52.2578C86.8738 52.2578 86.957 52.29 87.0274 52.3576C87.0946 52.4252 87.1298 52.5025 87.1298 52.5991C87.1298 52.6957 87.0946 52.773 87.0242 52.8406C86.9538 52.9082 86.8738 52.9404 86.7778 52.9404ZM86.5378 53.639H87.0114V57.7183H86.5378V53.639Z" fill="white"/>
<path d="M90.957 57.8054C90.5954 57.8054 90.2786 57.7153 90.0098 57.5317C89.741 57.3482 89.533 57.1003 89.3858 56.7816C89.2386 56.466 89.165 56.1022 89.165 55.6998C89.165 55.2973 89.2386 54.9271 89.389 54.6083C89.5394 54.2896 89.7474 54.0384 90.0162 53.8581C90.285 53.6778 90.5954 53.5845 90.9474 53.5845C91.2194 53.5845 91.4626 53.636 91.6833 53.7422C91.9041 53.8485 92.0865 53.9966 92.2273 54.1865C92.3713 54.3765 92.4609 54.5987 92.4961 54.853H92.0225C91.9745 54.6244 91.8561 54.4248 91.6674 54.2606C91.4786 54.0964 91.2418 54.0159 90.9538 54.0159C90.6946 54.0159 90.4674 54.0867 90.269 54.2284C90.0706 54.3701 89.9138 54.5632 89.8018 54.8144C89.6898 55.0655 89.6354 55.3553 89.6354 55.6837C89.6354 56.0121 89.6898 56.3083 89.7986 56.5626C89.9074 56.817 90.061 57.0166 90.2594 57.1583C90.4578 57.3032 90.6882 57.374 90.9538 57.374C91.133 57.374 91.2962 57.3386 91.4466 57.271C91.5938 57.2033 91.7186 57.1068 91.821 56.9812C91.9233 56.8556 91.9905 56.7043 92.0257 56.5337H92.4993C92.4641 56.7784 92.3777 57.0005 92.2401 57.1905C92.1025 57.3836 91.9233 57.535 91.7025 57.6444C91.485 57.7539 91.2322 57.8086 90.9506 57.8086" fill="white"/>
<path d="M95.7564 57.8119C95.5133 57.8119 95.2893 57.7636 95.0877 57.667C94.8861 57.5704 94.7229 57.4319 94.6045 57.2484C94.4861 57.0649 94.4253 56.8427 94.4253 56.5787C94.4253 56.3759 94.4637 56.2085 94.5373 56.07C94.6141 55.9316 94.7197 55.8189 94.8605 55.7288C94.9981 55.6418 95.1645 55.571 95.3533 55.5195C95.5421 55.468 95.7533 55.4293 95.9804 55.4004C96.2076 55.3714 96.3996 55.3488 96.5564 55.3263C96.7132 55.3038 96.8348 55.2716 96.918 55.2265C97.0012 55.1814 97.0428 55.1074 97.0428 55.0043V54.9077C97.0428 54.6309 96.9596 54.4119 96.7964 54.2509C96.6332 54.09 96.3964 54.0095 96.086 54.0095C95.7948 54.0095 95.5548 54.0739 95.3725 54.2026C95.1901 54.3314 95.0589 54.486 94.9853 54.6598L94.5405 54.4989C94.6333 54.2767 94.7581 54.0964 94.9213 53.9644C95.0845 53.8324 95.2637 53.7358 95.4653 53.6746C95.6668 53.6167 95.8684 53.5845 96.0764 53.5845C96.23 53.5845 96.3932 53.6038 96.5596 53.6456C96.7292 53.6875 96.8828 53.7583 97.0268 53.8581C97.1708 53.958 97.2892 54.0964 97.3788 54.2735C97.4684 54.4506 97.5132 54.6759 97.5132 54.9496V57.7185H97.0428V57.0713H97.014C96.9564 57.1905 96.8732 57.3096 96.7644 57.4223C96.6524 57.535 96.5148 57.6283 96.3484 57.7024C96.182 57.7764 95.9836 57.8119 95.7596 57.8119M95.8204 57.3804C96.07 57.3804 96.2876 57.3257 96.47 57.213C96.6524 57.1003 96.7932 56.9522 96.8924 56.7687C96.9916 56.5852 97.0428 56.3791 97.0428 56.157V55.5678C97.0076 55.6 96.95 55.6322 96.8668 55.6579C96.7836 55.6837 96.6908 55.7094 96.5852 55.7288C96.4796 55.7481 96.374 55.7674 96.2684 55.7803C96.1628 55.7931 96.0668 55.806 95.9836 55.8189C95.7532 55.8479 95.5581 55.893 95.3981 55.9509C95.2349 56.0121 95.1133 56.0926 95.0269 56.1988C94.9405 56.3051 94.8989 56.4403 94.8989 56.6045C94.8989 56.8524 94.9853 57.0456 95.1613 57.1808C95.3373 57.316 95.5581 57.3836 95.8236 57.3836" fill="white"/>
<path d="M101.472 54.0512H99.5356V53.6391H101.472V54.0512ZM100.14 52.6636H100.614V56.6559C100.614 56.8266 100.643 56.9586 100.7 57.0552C100.758 57.1517 100.835 57.2194 100.928 57.2612C101.02 57.2998 101.12 57.3224 101.225 57.3224C101.286 57.3224 101.34 57.3192 101.382 57.3095C101.427 57.3031 101.465 57.2934 101.497 57.2837L101.596 57.712C101.552 57.7281 101.494 57.7474 101.427 57.7603C101.36 57.7731 101.276 57.7828 101.177 57.7828C101.004 57.7828 100.838 57.7442 100.681 57.6701C100.521 57.5928 100.39 57.4801 100.288 57.3288C100.185 57.1775 100.134 56.9908 100.134 56.7686V52.6636H100.14Z" fill="white"/>
<path d="M103.9 52.9404C103.804 52.9404 103.721 52.9082 103.651 52.8406C103.584 52.773 103.548 52.6925 103.548 52.5991C103.548 52.5057 103.584 52.4252 103.654 52.3576C103.724 52.29 103.804 52.2578 103.9 52.2578C103.996 52.2578 104.08 52.29 104.15 52.3576C104.217 52.4252 104.252 52.5025 104.252 52.5991C104.252 52.6957 104.217 52.773 104.147 52.8406C104.076 52.9082 103.996 52.9404 103.9 52.9404ZM103.657 53.639H104.131V57.7183H103.657V53.639Z" fill="white"/>
<path d="M108.067 57.8051C107.715 57.8051 107.408 57.715 107.139 57.5379C106.87 57.3608 106.662 57.1129 106.508 56.7974C106.358 56.4819 106.281 56.1148 106.281 55.7027C106.281 55.2906 106.358 54.9171 106.508 54.5984C106.659 54.2796 106.87 54.0317 107.139 53.8546C107.408 53.6776 107.715 53.5874 108.067 53.5874C108.419 53.5874 108.726 53.6776 108.992 53.8546C109.26 54.0317 109.468 54.2828 109.622 54.5984C109.776 54.9139 109.849 55.2809 109.849 55.6995C109.849 56.118 109.772 56.4786 109.622 56.7942C109.472 57.1097 109.26 57.3576 108.992 57.5347C108.723 57.715 108.412 57.8019 108.064 57.8019M108.067 57.3705C108.348 57.3705 108.585 57.2932 108.784 57.1419C108.979 56.9906 109.126 56.7877 109.228 56.5334C109.331 56.279 109.379 56.0021 109.379 55.6963C109.379 55.3904 109.328 55.1103 109.228 54.8559C109.126 54.6016 108.979 54.3955 108.784 54.241C108.588 54.0864 108.348 54.0092 108.067 54.0092C107.785 54.0092 107.548 54.0864 107.353 54.241C107.158 54.3955 107.008 54.5984 106.908 54.8559C106.806 55.1103 106.758 55.3904 106.758 55.6963C106.758 56.0021 106.809 56.279 106.908 56.5334C107.011 56.7877 107.158 56.9906 107.353 57.1419C107.548 57.2932 107.788 57.3705 108.07 57.3705" fill="white"/>
<path d="M112.469 55.1682V57.7182H111.999V53.6389H112.457V54.2796H112.498C112.594 54.0703 112.741 53.9029 112.943 53.7774C113.145 53.6518 113.394 53.5874 113.692 53.5874C113.964 53.5874 114.204 53.6454 114.412 53.758C114.62 53.8707 114.78 54.0414 114.895 54.2603C115.01 54.4792 115.068 54.7529 115.068 55.0749V57.7182H114.597V55.1038C114.597 54.769 114.505 54.505 114.319 54.3086C114.133 54.1122 113.884 54.0156 113.573 54.0156C113.359 54.0156 113.17 54.0607 113.007 54.1541C112.841 54.2474 112.709 54.3794 112.617 54.5501C112.521 54.7239 112.473 54.9268 112.473 55.165" fill="white"/>
<path d="M123.352 54.534L122.92 54.6563C122.879 54.534 122.818 54.4245 122.741 54.3247C122.664 54.2249 122.562 54.1476 122.44 54.0897C122.316 54.0317 122.162 54.0027 121.98 54.0027C121.704 54.0027 121.48 54.0671 121.304 54.1991C121.128 54.3311 121.039 54.4986 121.039 54.7078C121.039 54.8817 121.1 55.0266 121.221 55.1328C121.343 55.2423 121.528 55.3292 121.778 55.3904L122.392 55.5417C122.732 55.6254 122.988 55.7574 123.157 55.9377C123.327 56.118 123.413 56.3434 123.413 56.6171C123.413 56.8457 123.349 57.0517 123.224 57.232C123.096 57.4091 122.92 57.5508 122.696 57.6538C122.469 57.7568 122.21 57.8051 121.912 57.8051C121.516 57.8051 121.189 57.715 120.933 57.5347C120.677 57.3544 120.511 57.0936 120.44 56.7555L120.892 56.6428C120.949 56.8843 121.064 57.0678 121.234 57.1934C121.404 57.3157 121.628 57.3801 121.906 57.3801C122.216 57.3801 122.466 57.3093 122.652 57.1676C122.837 57.026 122.933 56.8521 122.933 56.6364C122.933 56.4722 122.879 56.3337 122.77 56.2211C122.661 56.1084 122.495 56.0247 122.274 55.9732L121.612 55.8154C121.26 55.7317 121 55.5965 120.831 55.4129C120.661 55.2294 120.578 55.0008 120.578 54.7272C120.578 54.5018 120.639 54.3054 120.76 54.1347C120.882 53.9641 121.048 53.8289 121.263 53.7323C121.477 53.6357 121.717 53.5874 121.992 53.5874C122.364 53.5874 122.661 53.6711 122.885 53.8418C123.106 54.0124 123.269 54.2442 123.368 54.5372" fill="white"/>
<path d="M125.881 59.2504C125.788 59.2504 125.701 59.2407 125.618 59.2246C125.538 59.2085 125.474 59.186 125.426 59.1667L125.554 58.7514C125.714 58.7997 125.858 58.819 125.983 58.8061C126.108 58.7932 126.22 58.7353 126.316 58.6355C126.412 58.5356 126.498 58.3843 126.575 58.1783L126.722 57.7629L125.231 53.645H125.74L126.943 57.0997H126.981L128.184 53.645H128.693L126.978 58.3714C126.908 58.5678 126.818 58.732 126.713 58.8641C126.607 58.9961 126.485 59.0926 126.348 59.157C126.21 59.2214 126.053 59.2536 125.884 59.2536" fill="white"/>
<path d="M133.448 54.534L133.016 54.6563C132.974 54.534 132.914 54.4245 132.837 54.3247C132.76 54.2249 132.658 54.1476 132.536 54.0897C132.411 54.0317 132.258 54.0027 132.075 54.0027C131.8 54.0027 131.576 54.0671 131.4 54.1991C131.224 54.3311 131.135 54.4986 131.135 54.7078C131.135 54.8817 131.195 55.0266 131.317 55.1328C131.439 55.2423 131.624 55.3292 131.874 55.3904L132.488 55.5417C132.827 55.6254 133.083 55.7574 133.253 55.9377C133.422 56.118 133.509 56.3434 133.509 56.6171C133.509 56.8457 133.445 57.0517 133.32 57.232C133.192 57.4091 133.016 57.5508 132.792 57.6538C132.565 57.7568 132.306 57.8051 132.008 57.8051C131.611 57.8051 131.285 57.715 131.029 57.5347C130.773 57.3544 130.607 57.0936 130.536 56.7555L130.987 56.6428C131.045 56.8843 131.16 57.0678 131.33 57.1934C131.499 57.3157 131.723 57.3801 132.002 57.3801C132.312 57.3801 132.562 57.3093 132.747 57.1676C132.933 57.026 133.029 56.8521 133.029 56.6364C133.029 56.4722 132.974 56.3337 132.866 56.2211C132.757 56.1084 132.59 56.0247 132.37 55.9732L131.707 55.8154C131.355 55.7317 131.096 55.5965 130.927 55.4129C130.757 55.2294 130.674 55.0008 130.674 54.7272C130.674 54.5018 130.735 54.3054 130.856 54.1347C130.978 53.9641 131.144 53.8289 131.359 53.7323C131.573 53.6357 131.813 53.5874 132.088 53.5874C132.459 53.5874 132.757 53.6711 132.981 53.8418C133.202 54.0124 133.365 54.2442 133.464 54.5372" fill="white"/>
<path d="M137.246 54.0512H135.311V53.6391H137.246V54.0512ZM135.919 52.6636H136.392V56.6559C136.392 56.8266 136.421 56.9586 136.479 57.0552C136.536 57.1517 136.613 57.2194 136.706 57.2612C136.798 57.2998 136.898 57.3224 137.003 57.3224C137.064 57.3224 137.118 57.3192 137.16 57.3095C137.205 57.3031 137.243 57.2934 137.275 57.2837L137.374 57.712C137.33 57.7281 137.272 57.7474 137.205 57.7603C137.138 57.7731 137.054 57.7828 136.955 57.7828C136.782 57.7828 136.616 57.7442 136.459 57.6701C136.299 57.5928 136.168 57.4801 136.066 57.3288C135.963 57.1775 135.912 56.9908 135.912 56.7686V52.6636H135.919Z" fill="white"/>
<path d="M141.025 57.8051C140.648 57.8051 140.318 57.715 140.043 57.5379C139.768 57.3608 139.553 57.1129 139.403 56.7974C139.253 56.4819 139.176 56.118 139.176 55.7059C139.176 55.2938 139.253 54.93 139.403 54.6112C139.553 54.2925 139.761 54.0414 140.03 53.8611C140.296 53.6808 140.606 53.5874 140.955 53.5874C141.176 53.5874 141.387 53.626 141.592 53.7098C141.796 53.7902 141.979 53.9126 142.142 54.08C142.305 54.2442 142.433 54.4535 142.529 54.7046C142.625 54.9557 142.67 55.252 142.67 55.5932V55.8283H139.502V55.4129H142.19C142.19 55.1521 142.139 54.9139 142.033 54.7046C141.928 54.4953 141.784 54.3279 141.598 54.2056C141.413 54.0832 141.198 54.0221 140.955 54.0221C140.699 54.0221 140.472 54.0929 140.277 54.2281C140.081 54.3666 139.928 54.5469 139.819 54.7754C139.71 55.0008 139.653 55.2487 139.653 55.5192V55.7703C139.653 56.0955 139.707 56.3788 139.819 56.6203C139.931 56.8618 140.088 57.0485 140.296 57.1805C140.501 57.3125 140.747 57.3801 141.029 57.3801C141.221 57.3801 141.39 57.3512 141.534 57.29C141.678 57.2288 141.803 57.1483 141.902 57.0485C142.001 56.9455 142.078 56.836 142.129 56.7137L142.574 56.8586C142.513 57.0292 142.411 57.1902 142.273 57.3351C142.136 57.4799 141.96 57.5958 141.752 57.686C141.544 57.7729 141.304 57.818 141.032 57.818" fill="white"/>
<path d="M144.817 57.7185V53.6392H145.275V54.267H145.317C145.397 54.0578 145.534 53.8903 145.723 53.768C145.912 53.6456 146.139 53.5845 146.405 53.5845C146.686 53.5845 146.913 53.6521 147.096 53.7841C147.275 53.9161 147.412 54.0964 147.502 54.3282H147.537C147.63 54.1028 147.777 53.9225 147.985 53.7873C148.193 53.6521 148.443 53.5877 148.737 53.5877C149.115 53.5877 149.412 53.7068 149.63 53.9451C149.848 54.1833 149.956 54.531 149.956 54.9882V57.7217H149.486V54.9882C149.486 54.6663 149.403 54.4248 149.24 54.2638C149.076 54.1028 148.859 54.0223 148.593 54.0223C148.283 54.0223 148.046 54.1189 147.876 54.3089C147.71 54.4988 147.627 54.7435 147.627 55.0365V57.7217H147.147V54.9464C147.147 54.6695 147.07 54.4473 146.917 54.2767C146.763 54.1061 146.549 54.0223 146.27 54.0223C146.085 54.0223 145.915 54.0674 145.768 54.1608C145.621 54.2542 145.502 54.3797 145.416 54.5439C145.329 54.7081 145.288 54.8949 145.288 55.1074V57.7217H144.817V57.7185Z" fill="white"/>
</g>
<defs>
<clipPath id="clip0_279_230">
<rect width="180" height="69" fill="white"/>
</clipPath>
</defs>
</svg>
