<svg    xmlns="http://www.w3.org/2000/svg">
<path d="M26.085 19.1554V30.3523H20.5201V19.6034C20.5201 18.8381 20.4313 18.155 20.2576 17.5521C20.2576 17.5484 20.2576 17.5465 20.2539 17.5428C20.0283 16.9026 19.6604 16.3221 19.1483 15.7977C18.2923 14.9186 17.2569 14.452 16.0459 14.3978C15.9646 14.3941 15.8851 14.3922 15.8019 14.3922C15.7187 14.3922 15.6392 14.3941 15.5578 14.3978C14.3469 14.452 13.3115 14.9186 12.4555 15.7977C11.9434 16.3221 11.5755 16.9026 11.3499 17.5428C11.3499 17.5447 11.3481 17.5484 11.3462 17.5521C11.1724 18.155 11.0837 18.8381 11.0837 19.6034V30.3523H5.51874V19.1554C5.51874 16.2792 6.5208 13.8304 8.52307 11.8072C9.25521 11.0681 10.0447 10.4652 10.8877 9.99672C12.3538 9.18295 13.9937 8.77606 15.8019 8.77606C17.61 8.77606 19.2499 9.18295 20.7179 9.99672C21.5628 10.4671 22.3504 11.0699 23.0807 11.8072C25.083 13.8304 26.085 16.2792 26.085 19.1554Z" fill="#1A01F3"/>
<path d="M15.8 40H15.7631C8.29197 39.9907 2.68079 37.0006 0 35.22L2.96181 30.6789C5.13973 32.1254 9.69893 34.5556 15.7705 34.563H15.8019C21.8882 34.563 26.4567 32.131 28.642 30.6789L31.6038 35.2219C28.9156 37.0081 23.2915 40.0019 15.8019 40.0019" fill="#1A01F3"/>
<path d="M19.629 3.86356C19.629 5.99692 17.9151 7.72712 15.8019 7.72712C13.6887 7.72712 11.9748 5.99692 11.9748 3.86356C11.9748 1.7302 13.6887 0 15.8019 0C17.9151 0 19.629 1.7302 19.629 3.86356Z" fill="#1A01F3"/>

</svg>
